<svg width="30" height="30" viewBox="0 0 30 30" fill="none" xmlns="http://www.w3.org/2000/svg">
<path d="M22.5 5H21.25V3.75C21.25 3.41848 21.1183 3.10054 20.8839 2.86612C20.6495 2.6317 20.3315 2.5 20 2.5C19.6685 2.5 19.3505 2.6317 19.1161 2.86612C18.8817 3.10054 18.75 3.41848 18.75 3.75V5H11.25V3.75C11.25 3.41848 11.1183 3.10054 10.8839 2.86612C10.6495 2.6317 10.3315 2.5 10 2.5C9.66848 2.5 9.35054 2.6317 9.11612 2.86612C8.8817 3.10054 8.75 3.41848 8.75 3.75V5H7.5C6.50544 5 5.55161 5.39509 4.84835 6.09835C4.14509 6.80161 3.75 7.75544 3.75 8.75V23.75C3.75 24.7446 4.14509 25.6984 4.84835 26.4017C5.55161 27.1049 6.50544 27.5 7.5 27.5H22.5C23.4946 27.5 24.4484 27.1049 25.1517 26.4017C25.8549 25.6984 26.25 24.7446 26.25 23.75V8.75C26.25 7.75544 25.8549 6.80161 25.1517 6.09835C24.4484 5.39509 23.4946 5 22.5 5ZM7.5 7.5H8.75V8.75C8.75 9.08152 8.8817 9.39946 9.11612 9.63388C9.35054 9.8683 9.66848 10 10 10C10.3315 10 10.6495 9.8683 10.8839 9.63388C11.1183 9.39946 11.25 9.08152 11.25 8.75V7.5H18.75V8.75C18.75 9.08152 18.8817 9.39946 19.1161 9.63388C19.3505 9.8683 19.6685 10 20 10C20.3315 10 20.6495 9.8683 20.8839 9.63388C21.1183 9.39946 21.25 9.08152 21.25 8.75V7.5H22.5C22.8315 7.5 23.1495 7.6317 23.3839 7.86612C23.6183 8.10054 23.75 8.41848 23.75 8.75V13.75H6.25V8.75C6.25 8.41848 6.3817 8.10054 6.61612 7.86612C6.85054 7.6317 7.16848 7.5 7.5 7.5ZM22.5 25H7.5C7.16848 25 6.85054 24.8683 6.61612 24.6339C6.3817 24.3995 6.25 24.0815 6.25 23.75V16.25H23.75V23.75C23.75 24.0815 23.6183 24.3995 23.3839 24.6339C23.1495 24.8683 22.8315 25 22.5 25Z" fill="black"/>
<path d="M10 21.25C10.6904 21.25 11.25 20.6904 11.25 20C11.25 19.3096 10.6904 18.75 10 18.75C9.30964 18.75 8.75 19.3096 8.75 20C8.75 20.6904 9.30964 21.25 10 21.25Z" fill="black"/>
<path d="M20 18.75H15C14.6685 18.75 14.3505 18.8817 14.1161 19.1161C13.8817 19.3505 13.75 19.6685 13.75 20C13.75 20.3315 13.8817 20.6495 14.1161 20.8839C14.3505 21.1183 14.6685 21.25 15 21.25H20C20.3315 21.25 20.6495 21.1183 20.8839 20.8839C21.1183 20.6495 21.25 20.3315 21.25 20C21.25 19.6685 21.1183 19.3505 20.8839 19.1161C20.6495 18.8817 20.3315 18.75 20 18.75Z" fill="black"/>
</svg>
