<svg width="43" height="40" viewBox="0 0 43 40" fill="none" xmlns="http://www.w3.org/2000/svg">
<path d="M34.0417 18.3334H12.7925L19.2962 11.0667C19.6004 10.7263 19.7467 10.2875 19.703 9.84682C19.6593 9.40611 19.4292 8.99959 19.0633 8.71669C18.6974 8.43379 18.2257 8.29769 17.752 8.33832C17.2782 8.37895 16.8412 8.59299 16.5371 8.93336L7.57874 18.9334C7.51847 19.0129 7.46457 19.0965 7.41749 19.1834C7.41749 19.2667 7.41749 19.3167 7.29207 19.4C7.21086 19.5911 7.16834 19.7945 7.16666 20C7.16834 20.2055 7.21086 20.4089 7.29207 20.6C7.29207 20.6834 7.29207 20.7334 7.41749 20.8167C7.46457 20.9036 7.51847 20.9871 7.57874 21.0667L16.5371 31.0667C16.7055 31.2548 16.9165 31.4061 17.1549 31.5098C17.3934 31.6135 17.6534 31.6671 17.9167 31.6667C18.3353 31.6674 18.741 31.5318 19.0633 31.2834C19.2447 31.1434 19.3947 30.9716 19.5046 30.7777C19.6146 30.5838 19.6823 30.3716 19.7039 30.1533C19.7255 29.935 19.7007 29.7149 19.6307 29.5056C19.5608 29.2962 19.4471 29.1018 19.2962 28.9334L12.7925 21.6667H34.0417C34.5168 21.6667 34.9726 21.4911 35.3086 21.1785C35.6446 20.866 35.8333 20.442 35.8333 20C35.8333 19.558 35.6446 19.1341 35.3086 18.8215C34.9726 18.509 34.5168 18.3334 34.0417 18.3334Z" fill="#231F20"/>
</svg>
