<svg width="33" height="33" viewBox="0 0 33 33" fill="none" xmlns="http://www.w3.org/2000/svg">
<path d="M16.5 2.75C13.7805 2.75 11.1221 3.55642 8.8609 5.06729C6.59972 6.57816 4.83735 8.72562 3.79665 11.2381C2.75594 13.7506 2.48365 16.5153 3.01419 19.1825C3.54474 21.8497 4.8543 24.2997 6.77727 26.2227C8.70024 28.1457 11.1503 29.4553 13.8175 29.9858C16.4847 30.5163 19.2494 30.244 21.7619 29.2033C24.2744 28.1626 26.4218 26.4003 27.9327 24.1391C29.4436 21.8779 30.25 19.2195 30.25 16.5C30.25 14.6943 29.8943 12.9063 29.2033 11.2381C28.5123 9.56988 27.4995 8.05409 26.2227 6.77728C24.9459 5.50048 23.4301 4.48766 21.7619 3.79666C20.0937 3.10565 18.3057 2.75 16.5 2.75ZM16.5 27.5C14.3244 27.5 12.1977 26.8549 10.3887 25.6462C8.57978 24.4375 7.16988 22.7195 6.33732 20.7095C5.50475 18.6995 5.28692 16.4878 5.71135 14.354C6.13579 12.2202 7.18344 10.2602 8.72182 8.72183C10.2602 7.18345 12.2202 6.1358 14.354 5.71136C16.4878 5.28692 18.6995 5.50476 20.7095 6.33733C22.7195 7.16989 24.4375 8.57979 25.6462 10.3887C26.8549 12.1977 27.5 14.3244 27.5 16.5C27.5 19.4174 26.3411 22.2153 24.2782 24.2782C22.2153 26.3411 19.4174 27.5 16.5 27.5Z" fill="#231F20"/>
<path d="M20.2262 12.7737C20.0984 12.6449 19.9463 12.5426 19.7788 12.4728C19.6112 12.4029 19.4315 12.367 19.25 12.367C19.0684 12.367 18.8887 12.4029 18.7212 12.4728C18.5536 12.5426 18.4015 12.6449 18.2737 12.7737L16.5 14.5612L14.7262 12.7737C14.4673 12.5148 14.1161 12.3694 13.75 12.3694C13.3838 12.3694 13.0326 12.5148 12.7737 12.7737C12.5148 13.0326 12.3693 13.3838 12.3693 13.75C12.3693 14.1161 12.5148 14.4673 12.7737 14.7262L14.5612 16.5L12.7737 18.2737C12.6448 18.4016 12.5425 18.5536 12.4727 18.7212C12.4029 18.8887 12.367 19.0685 12.367 19.25C12.367 19.4315 12.4029 19.6112 12.4727 19.7788C12.5425 19.9463 12.6448 20.0984 12.7737 20.2262C12.9015 20.3551 13.0536 20.4574 13.2212 20.5272C13.3887 20.597 13.5684 20.633 13.75 20.633C13.9315 20.633 14.1112 20.597 14.2788 20.5272C14.4463 20.4574 14.5984 20.3551 14.7262 20.2262L16.5 18.4387L18.2737 20.2262C18.4015 20.3551 18.5536 20.4574 18.7212 20.5272C18.8887 20.597 19.0684 20.633 19.25 20.633C19.4315 20.633 19.6112 20.597 19.7788 20.5272C19.9463 20.4574 20.0984 20.3551 20.2262 20.2262C20.3551 20.0984 20.4574 19.9463 20.5272 19.7788C20.597 19.6112 20.6329 19.4315 20.6329 19.25C20.6329 19.0685 20.597 18.8887 20.5272 18.7212C20.4574 18.5536 20.3551 18.4016 20.2262 18.2737L18.4387 16.5L20.2262 14.7262C20.3551 14.5984 20.4574 14.4463 20.5272 14.2788C20.597 14.1112 20.6329 13.9315 20.6329 13.75C20.6329 13.5685 20.597 13.3887 20.5272 13.2212C20.4574 13.0536 20.3551 12.9016 20.2262 12.7737Z" fill="#231F20"/>
</svg>
