<svg width="32" height="31" viewBox="0 0 32 31" fill="none" xmlns="http://www.w3.org/2000/svg">
<path d="M13.0421 14.5829C12.7989 14.3397 12.469 14.203 12.125 14.203C11.781 14.203 11.4511 14.3397 11.2079 14.5829C10.9647 14.8261 10.828 15.156 10.828 15.5C10.828 15.8439 10.9647 16.1738 11.2079 16.4171L15.0829 20.2921C15.2036 20.4118 15.3467 20.5065 15.5041 20.5708C15.6615 20.635 15.83 20.6676 16 20.6666C16.1768 20.661 16.3506 20.6192 16.5106 20.5436C16.6706 20.4681 16.8133 20.3605 16.93 20.2275L25.9717 9.89414C26.1804 9.63494 26.2811 9.30515 26.2527 8.97354C26.2242 8.64194 26.0689 8.3341 25.819 8.11423C25.5692 7.89436 25.2441 7.77942 24.9116 7.79337C24.579 7.80733 24.2647 7.9491 24.0342 8.18914L16 17.4891L13.0421 14.5829Z" fill="black"/>
<path d="M27.625 14.2083C27.2824 14.2083 26.9539 14.3444 26.7116 14.5866C26.4694 14.8289 26.3333 15.1574 26.3333 15.5C26.3333 18.2405 25.2446 20.8689 23.3068 22.8067C21.3689 24.7446 18.7406 25.8333 16 25.8333C13.9593 25.8324 11.9645 25.2272 10.2673 24.0941C8.57002 22.961 7.24627 21.3508 6.46295 19.4664C5.67962 17.582 5.4718 15.5079 5.86569 13.5055C6.25958 11.5032 7.23753 9.66227 8.67624 8.21498C9.63298 7.24543 10.7735 6.47645 12.031 5.95303C13.2886 5.42961 14.6379 5.16227 16 5.16665C16.826 5.17182 17.6489 5.2671 18.4542 5.45081C18.6227 5.50294 18.8001 5.51999 18.9755 5.50093C19.1508 5.48186 19.3204 5.42708 19.4738 5.33996C19.6272 5.25284 19.7611 5.13522 19.8673 4.99437C19.9735 4.85351 20.0497 4.6924 20.0912 4.52096C20.1327 4.34952 20.1387 4.17139 20.1088 3.99756C20.0788 3.82372 20.0136 3.65786 19.9171 3.5102C19.8206 3.36254 19.6949 3.23621 19.5477 3.139C19.4005 3.04179 19.2349 2.97576 19.0612 2.94498C18.0578 2.70892 17.0308 2.58759 16 2.58331C13.4481 2.59657 10.9573 3.36544 8.84196 4.79291C6.72661 6.22037 5.0815 8.24244 4.11423 10.604C3.14696 12.9655 2.90089 15.5606 3.40706 18.0618C3.91324 20.563 5.14897 22.8583 6.95833 24.6579C9.35655 27.0572 12.6076 28.4087 16 28.4166C19.4257 28.4166 22.7111 27.0558 25.1335 24.6334C27.5558 22.2111 28.9167 18.9257 28.9167 15.5C28.9167 15.1574 28.7806 14.8289 28.5383 14.5866C28.2961 14.3444 27.9676 14.2083 27.625 14.2083Z" fill="black"/>
</svg>
