<svg width="35" height="35" viewBox="0 0 35 35" fill="none" xmlns="http://www.w3.org/2000/svg">
<path d="M17.1191 2.88178C14.2976 2.88178 11.5394 3.72685 9.1934 5.31012C6.84738 6.89339 5.01887 9.14376 3.93912 11.7766C2.85936 14.4095 2.57685 17.3067 3.1273 20.1017C3.67776 22.8968 5.03646 25.4642 7.03159 27.4794C9.02672 29.4945 11.5687 30.8668 14.336 31.4228C17.1033 31.9787 19.9717 31.6934 22.5785 30.6028C25.1852 29.5122 27.4133 27.6654 28.9808 25.2959C30.5484 22.9263 31.3851 20.1405 31.3851 17.2907C31.3851 15.3985 31.0161 13.5248 30.2992 11.7766C29.5822 10.0285 28.5314 8.44005 27.2067 7.10206C25.882 5.76406 24.3093 4.70271 22.5785 3.97859C20.8477 3.25448 18.9926 2.88178 17.1191 2.88178ZM17.1191 28.8178C14.8619 28.8178 12.6554 28.1418 10.7785 26.8752C8.90173 25.6086 7.43893 23.8083 6.57512 21.7019C5.71132 19.5956 5.48531 17.2779 5.92567 15.0419C6.36603 12.8058 7.45299 10.7519 9.0491 9.13979C10.6452 7.52769 12.6788 6.42983 14.8926 5.98506C17.1065 5.54028 19.4012 5.76855 21.4866 6.64102C23.572 7.51348 25.3544 8.99094 26.6085 10.8866C27.8625 12.7822 28.5319 15.0109 28.5319 17.2907C28.5319 20.3479 27.3295 23.2799 25.1892 25.4416C23.0489 27.6034 20.146 28.8178 17.1191 28.8178Z" fill="#231F20"/>
<path d="M17.1191 12.968C17.907 12.968 18.5457 12.3229 18.5457 11.5271C18.5457 10.7314 17.907 10.0862 17.1191 10.0862C16.3312 10.0862 15.6925 10.7314 15.6925 11.5271C15.6925 12.3229 16.3312 12.968 17.1191 12.968Z" fill="#231F20"/>
<path d="M17.1191 14.4089C16.7407 14.4089 16.3779 14.5607 16.1103 14.8309C15.8428 15.1012 15.6925 15.4677 15.6925 15.8498V23.0543C15.6925 23.4364 15.8428 23.8029 16.1103 24.0731C16.3779 24.3434 16.7407 24.4952 17.1191 24.4952C17.4975 24.4952 17.8603 24.3434 18.1279 24.0731C18.3954 23.8029 18.5457 23.4364 18.5457 23.0543V15.8498C18.5457 15.4677 18.3954 15.1012 18.1279 14.8309C17.8603 14.5607 17.4975 14.4089 17.1191 14.4089Z" fill="#231F20"/>
</svg>
