<svg width="30" height="30" viewBox="0 0 30 30" fill="none" xmlns="http://www.w3.org/2000/svg">
<path d="M18.75 20H11.25C10.9185 20 10.6005 20.1317 10.3661 20.3661C10.1317 20.6005 10 20.9185 10 21.25C10 21.5815 10.1317 21.8995 10.3661 22.1339C10.6005 22.3683 10.9185 22.5 11.25 22.5H18.75C19.0815 22.5 19.3995 22.3683 19.6339 22.1339C19.8683 21.8995 20 21.5815 20 21.25C20 20.9185 19.8683 20.6005 19.6339 20.3661C19.3995 20.1317 19.0815 20 18.75 20Z" fill="#231F20"/>
<path d="M11.25 17.5H15C15.3315 17.5 15.6495 17.3683 15.8839 17.1339C16.1183 16.8995 16.25 16.5815 16.25 16.25C16.25 15.9185 16.1183 15.6005 15.8839 15.3661C15.6495 15.1317 15.3315 15 15 15H11.25C10.9185 15 10.6005 15.1317 10.3661 15.3661C10.1317 15.6005 10 15.9185 10 16.25C10 16.5815 10.1317 16.8995 10.3661 17.1339C10.6005 17.3683 10.9185 17.5 11.25 17.5Z" fill="#231F20"/>
<path d="M24.675 10.4126L17.875 2.9126C17.7581 2.78311 17.6154 2.67951 17.4561 2.60847C17.2968 2.53743 17.1244 2.50052 16.95 2.5001H8.19999C7.78468 2.49515 7.37246 2.57205 6.98687 2.72642C6.60128 2.88079 6.24987 3.10961 5.95272 3.3998C5.65557 3.68998 5.41848 4.03587 5.25501 4.41769C5.09154 4.79951 5.00489 5.20979 4.99999 5.6251V24.3751C5.00489 24.7904 5.09154 25.2007 5.25501 25.5825C5.41848 25.9643 5.65557 26.3102 5.95272 26.6004C6.24987 26.8906 6.60128 27.1194 6.98687 27.2738C7.37246 27.4282 7.78468 27.5051 8.19999 27.5001H21.8C22.2153 27.5051 22.6275 27.4282 23.0131 27.2738C23.3987 27.1194 23.7501 26.8906 24.0473 26.6004C24.3444 26.3102 24.5815 25.9643 24.745 25.5825C24.9084 25.2007 24.9951 24.7904 25 24.3751V11.2501C24.9992 10.9403 24.8834 10.6419 24.675 10.4126ZM17.5 6.2501L20.925 10.0001H18.425C18.2941 9.9922 18.1661 9.9583 18.0484 9.90039C17.9308 9.84248 17.8258 9.76172 17.7397 9.66281C17.6536 9.5639 17.5881 9.44883 17.5469 9.32432C17.5057 9.19981 17.4898 9.06834 17.5 8.9376V6.2501ZM21.8 25.0001H8.19999C8.11296 25.0052 8.02578 24.993 7.94346 24.9643C7.86114 24.9356 7.78529 24.891 7.72026 24.8329C7.65523 24.7748 7.6023 24.7045 7.5645 24.626C7.5267 24.5474 7.50478 24.4622 7.49999 24.3751V5.6251C7.50478 5.53806 7.5267 5.45281 7.5645 5.37425C7.6023 5.29569 7.65523 5.22536 7.72026 5.1673C7.78529 5.10924 7.86114 5.06458 7.94346 5.03589C8.02578 5.0072 8.11296 4.99504 8.19999 5.0001H15V8.9376C14.9798 9.85838 15.3247 10.7498 15.9593 11.4172C16.594 12.0846 17.4669 12.4739 18.3875 12.5001H22.5V24.3751C22.4952 24.4622 22.4733 24.5474 22.4355 24.626C22.3977 24.7045 22.3448 24.7748 22.2797 24.8329C22.2147 24.891 22.1388 24.9356 22.0565 24.9643C21.9742 24.993 21.887 25.0052 21.8 25.0001Z" fill="#231F20"/>
</svg>
