<svg width="87" height="96" viewBox="0 0 87 96" fill="none" xmlns="http://www.w3.org/2000/svg">
<path d="M52.6556 73.0842C71.4129 73.0842 86.6188 57.8783 86.6188 39.121C86.6188 20.3636 71.4129 5.15778 52.6556 5.15778C33.8982 5.15778 18.6924 20.3636 18.6924 39.121C18.6924 57.8783 33.8982 73.0842 52.6556 73.0842Z" fill="#FFE5D2"/>
<path d="M60.554 10.8951C61.5416 10.8951 62.3422 10.0945 62.3422 9.10693C62.3422 8.11933 61.5416 7.31873 60.554 7.31873C59.5664 7.31873 58.7658 8.11933 58.7658 9.10693C58.7658 10.0945 59.5664 10.8951 60.554 10.8951Z" fill="#4C241D"/>
<path d="M84.2493 4.5764C85.2369 4.5764 86.0375 3.7758 86.0375 2.7882C86.0375 1.80061 85.2369 1 84.2493 1C83.2617 1 82.4611 1.80061 82.4611 2.7882C82.4611 3.7758 83.2617 4.5764 84.2493 4.5764Z" fill="#4C241D"/>
<path d="M75.3035 74.1315L69.4998 79.9353" stroke="#4C241D" stroke-width="3.15937" stroke-linecap="round" stroke-linejoin="round"/>
<path d="M69.4998 74.1315L75.3035 79.9353" stroke="#4C241D" stroke-width="3.15937" stroke-linecap="round" stroke-linejoin="round"/>
<path d="M12.3737 88.881H47.1267V93.62H12.3737V88.881Z" fill="#BF7E68" stroke="#4C241D" stroke-width="3.15937" stroke-linecap="round" stroke-linejoin="round"/>
<path d="M55.0251 50.9686C55.0251 50.9686 67.6626 47.8092 75.561 39.9108L80.3001 43.0701C80.3001 43.0701 75.1045 46.1015 73.9813 50.9686C69.2423 71.5044 51.8658 71.5044 51.8658 71.5044" fill="#BF7E68"/>
<path d="M55.0251 50.9686C55.0251 50.9686 67.6626 47.8092 75.561 39.9108L80.3001 43.0701C80.3001 43.0701 75.1045 46.1015 73.9813 50.9686C69.2423 71.5044 51.8658 71.5044 51.8658 71.5044" stroke="#4C241D" stroke-width="3.15937" stroke-linecap="round" stroke-linejoin="round"/>
<path d="M15.533 36.7514H43.9673C45.2242 36.7514 46.4296 37.2507 47.3183 38.1394C48.2071 39.0282 48.7064 40.2336 48.7064 41.4905H10.794" stroke="#4C241D" stroke-width="3.15937" stroke-linecap="round" stroke-linejoin="round"/>
<path d="M51.3302 47.0194L53.4233 13.7054C53.7108 9.11488 51.2149 5.15778 48.0303 5.15778H11.4701C8.28543 5.15778 5.78321 9.11488 6.07703 13.7054L8.17011 47.0194" stroke="#4C241D" stroke-width="3.15937" stroke-linecap="round" stroke-linejoin="round"/>
<path d="M47.5769 88.881H11.9234C10.5647 88.881 9.22034 88.6019 7.97381 88.0611C6.72728 87.5202 5.6051 86.7292 4.67681 85.7369C3.74852 84.7446 3.0339 83.5723 2.57723 82.2926C2.12056 81.0128 1.93158 79.6529 2.02199 78.2971L4.04399 47.9672C4.15947 46.2115 4.93829 44.5654 6.22254 43.3627C7.50679 42.16 9.20035 41.4907 10.9598 41.4905H48.5484C50.3079 41.4907 52.0015 42.16 53.2857 43.3627C54.57 44.5654 55.3488 46.2115 55.4643 47.9672L57.4863 78.2971C57.5767 79.6535 57.3875 81.0141 56.9304 82.2944C56.4732 83.5747 55.7579 84.7474 54.8287 85.7398C53.8996 86.7322 52.7765 87.5231 51.529 88.0634C50.2815 88.6038 48.9364 88.882 47.5769 88.881V88.881Z" fill="#FC8C29" stroke="#4C241D" stroke-width="3.15937" stroke-linecap="round" stroke-linejoin="round"/>
<path d="M47.1267 93.62H67.6626" stroke="#4C241D" stroke-width="3.15937" stroke-linecap="round" stroke-linejoin="round"/>
<path d="M29.7502 36.7514V32.0124" stroke="#4C241D" stroke-width="3.15937" stroke-linecap="round" stroke-linejoin="round"/>
<path d="M24.2213 67.5553C24.2213 66.2984 24.7206 65.093 25.6093 64.2043C26.4981 63.3155 27.7035 62.8162 28.9603 62.8162C30.2172 62.8162 31.4226 63.3155 32.3113 64.2043C33.2001 65.093 33.6994 66.2984 33.6994 67.5553C33.6994 66.2984 34.1987 65.093 35.0874 64.2043C35.9762 63.3155 37.1816 62.8162 38.4384 62.8162C39.6953 62.8162 40.9007 63.3155 41.7894 64.2043C42.6782 65.093 43.1775 66.2984 43.1775 67.5553C43.1775 66.2984 43.6768 65.093 44.5655 64.2043C45.4543 63.3155 46.6597 62.8162 47.9165 62.8162C49.1734 62.8162 50.3788 63.3155 51.2675 64.2043C52.1563 65.093 52.6556 66.2984 52.6556 67.5553" stroke="#FFCE56" stroke-width="3.15937" stroke-linecap="round" stroke-linejoin="round"/>
<path d="M33.6994 27.2733H25.801C24.4923 27.2733 23.4315 28.3342 23.4315 29.6428C23.4315 30.9515 24.4923 32.0124 25.801 32.0124H33.6994C35.0081 32.0124 36.0689 30.9515 36.0689 29.6428C36.0689 28.3342 35.0081 27.2733 33.6994 27.2733Z" fill="#FFCE56" stroke="#4C241D" stroke-width="3.15937" stroke-linecap="round" stroke-linejoin="round"/>
<path d="M41.5978 1.99841H17.9025C16.5939 1.99841 15.533 3.05929 15.533 4.36794V5.94762C15.533 7.25627 16.5939 8.31715 17.9025 8.31715H41.5978C42.9064 8.31715 43.9673 7.25627 43.9673 5.94762V4.36794C43.9673 3.05929 42.9064 1.99841 41.5978 1.99841Z" fill="#BF7E68" stroke="#4C241D" stroke-width="3.15937" stroke-linecap="round" stroke-linejoin="round"/>
<path d="M8.42444 56.4975C8.42444 55.2406 8.92373 54.0352 9.81247 53.1465C10.7012 52.2577 11.9066 51.7584 13.1635 51.7584C14.4204 51.7584 15.6258 52.2577 16.5145 53.1465C17.4032 54.0352 17.9025 55.2406 17.9025 56.4975C17.9025 55.2406 18.4018 54.0352 19.2906 53.1465C20.1793 52.2577 21.3847 51.7584 22.6416 51.7584C23.8985 51.7584 25.1039 52.2577 25.9926 53.1465C26.8813 54.0352 27.3806 55.2406 27.3806 56.4975C27.3806 55.2406 27.8799 54.0352 28.7687 53.1465C29.6574 52.2577 30.8628 51.7584 32.1197 51.7584C33.3766 51.7584 34.582 52.2577 35.4707 53.1465C36.3594 54.0352 36.8587 55.2406 36.8587 56.4975" stroke="#FFCE56" stroke-width="3.15937" stroke-linecap="round" stroke-linejoin="round"/>
<path d="M8.42444 78.613C8.42444 77.3561 8.92373 76.1507 9.81247 75.262C10.7012 74.3733 11.9066 73.874 13.1635 73.874C14.4204 73.874 15.6258 74.3733 16.5145 75.262C17.4032 76.1507 17.9025 77.3561 17.9025 78.613C17.9025 77.3561 18.4018 76.1507 19.2906 75.262C20.1793 74.3733 21.3847 73.874 22.6416 73.874C23.8985 73.874 25.1039 74.3733 25.9926 75.262C26.8813 76.1507 27.3806 77.3561 27.3806 78.613C27.3806 77.3561 27.8799 76.1507 28.7687 75.262C29.6574 74.3733 30.8628 73.874 32.1197 73.874C33.3766 73.874 34.582 74.3733 35.4707 75.262C36.3594 76.1507 36.8587 77.3561 36.8587 78.613" stroke="#FFCE56" stroke-width="3.15937" stroke-linecap="round" stroke-linejoin="round"/>
<path d="M72.6228 14.5695L71.239 17.9927C70.8451 18.9647 70.7939 20.0419 71.094 21.0469C71.394 22.0518 72.0274 22.9247 72.8898 23.5216C73.7523 24.1183 74.3859 24.9911 74.686 25.9962C74.986 27.0012 74.9347 28.0785 74.5405 29.0505L73.1551 32.4737" stroke="#4C241D" stroke-width="3.15937" stroke-linecap="round" stroke-linejoin="round"/>
<path d="M79.9715 14.5695L78.5861 17.9927C78.1922 18.9647 78.141 20.0419 78.4411 21.0469C78.7412 22.0518 79.3745 22.9247 80.2369 23.5216C81.0994 24.1183 81.733 24.9911 82.0331 25.9962C82.3331 27.0012 82.2818 28.0785 81.8876 29.0505L80.5023 32.4737" stroke="#4C241D" stroke-width="3.15937" stroke-linecap="round" stroke-linejoin="round"/>
</svg>
